<?xml version="1.0" encoding="UTF-8"?>
<svg id="Calque_1" data-name="Calque 1" xmlns="http://www.w3.org/2000/svg" viewBox="0 0 100 29">
  <defs>
    <style>
      .cls-1, .cls-2 {
        stroke-width: 0px;
      }

      .cls-2 {
        fill: #a4dbe8;
      }
    </style>
  </defs>
  <path class="cls-1" d="M24.25,8.31h1.97s0-2.15,0-2.15h.9c2.06,0,2.99-1.43,2.99-2.66s-.93-2.66-2.99-2.66h-2.87s0,7.48,0,7.48h0ZM26.22,4.47v-1.96h.71c.79,0,1.16.47,1.16.98s-.37.98-1.16.98h-.71ZM31.14,8.31h1.97s0-2.15,0-2.15h.87s1.03,2.15,1.03,2.15h2.22s-1.34-2.7-1.34-2.7c.73-.53,1.08-1.35,1.08-2.11,0-1.24-.91-2.66-2.97-2.66h-2.86s0,7.48,0,7.48h0ZM33.11,4.47v-1.96h.65c.8,0,1.18.47,1.18.98s-.38.98-1.18.98h-.65ZM38.31,8.31h5.06s0-1.63,0-1.63h-3.09v-1.32h2.54s0-1.63,0-1.63h-2.54v-1.27h2.97s0-1.63,0-1.63h-4.94s0,7.48,0,7.48h0ZM47.61,8.45c1.8,0,3.05-.91,3.05-2.32,0-2.95-4.19-1.81-4.19-3.13,0-.44.39-.62.93-.62.63,0,1.1.39,1.14,1.05h1.99c-.08-1.48-1.11-2.73-3.19-2.73-1.68,0-2.89.91-2.89,2.33,0,2.88,4.19,2.01,4.19,3.1,0,.39-.52.63-1.06.63-.6,0-1.22-.29-1.26-.99h-1.99c.09,1.73,1.33,2.68,3.28,2.68h0ZM53.12,8.31h1.97s0-5.74,0-5.74h2.11s0-1.74,0-1.74h-6.19s0,1.74,0,1.74h2.1v5.73s0,0,0,0ZM56.58,8.31h2.03s.42-1.34.42-1.34h2.66s.42,1.34.42,1.34h2.08s-2.56-7.48-2.56-7.48h-2.46s-2.57,7.48-2.57,7.48h0ZM59.55,5.34l.81-2.56.81,2.56h-1.62s0,0,0,0ZM67.77,8.45c1.8,0,3.05-.91,3.05-2.32,0-2.95-4.19-1.81-4.19-3.13,0-.44.39-.62.93-.62.63,0,1.1.39,1.14,1.05h1.99c-.08-1.48-1.11-2.73-3.19-2.73-1.68,0-2.89.91-2.89,2.33,0,2.88,4.19,2.01,4.19,3.1,0,.39-.52.63-1.06.63-.6,0-1.22-.29-1.26-.99h-1.99c.09,1.73,1.33,2.68,3.28,2.68h0ZM72.02,8.31h1.97s0-2.98,0-2.98h2.66v2.98s1.97,0,1.97,0V.83s-1.97,0-1.97,0v2.87h-2.66V.83s-1.97,0-1.97,0v7.48s0,0,0,0ZM83.46,8.45c2.25,0,3.78-1.57,3.78-3.89s-1.53-3.86-3.78-3.86-3.77,1.56-3.77,3.86,1.53,3.89,3.77,3.89ZM81.72,4.55c0-1.29.71-2.17,1.74-2.17s1.75.88,1.75,2.17-.71,2.2-1.75,2.2-1.74-.9-1.74-2.2ZM88.31,8.31h1.97s0-2.15,0-2.15h.9c2.06,0,2.99-1.43,2.99-2.66s-.93-2.66-2.99-2.66h-2.87s0,7.48,0,7.48h0ZM90.28,4.47v-1.96h.71c.79,0,1.16.47,1.16.98s-.37.98-1.16.98h-.71Z"/>
  <g>
    <path class="cls-1" d="M24.06,15.96h.93c.02,1.05.94,1.48,2.07,1.48.98,0,1.74-.34,1.74-1.19,0-2.01-4.52-.9-4.52-3.63,0-1.3,1.15-2.06,2.59-2.06s2.59.72,2.75,2.21h-.96c-.16-1.02-.94-1.36-1.8-1.36s-1.64.38-1.64,1.2c0,1.99,4.52.8,4.52,3.63,0,1.35-1.14,2.05-2.7,2.05-1.74,0-2.96-.83-2.99-2.33Z"/>
    <path class="cls-1" d="M31.15,10.68h.92v3.27h4.18v-3.27h.92v7.48h-.92v-3.36h-4.18v3.36h-.92v-7.48Z"/>
    <path class="cls-1" d="M38.86,10.68h.92v7.48h-.92v-7.48Z"/>
    <path class="cls-1" d="M41.46,10.68h2.3c1.74,0,2.63,1.01,2.63,2.29s-.89,2.29-2.63,2.29h-1.38v2.89h-.92v-7.48ZM45.45,12.98c0-.9-.62-1.45-1.77-1.45h-1.3v2.9h1.3c1.15,0,1.77-.55,1.77-1.45Z"/>
    <path class="cls-1" d="M47.71,10.68h2.3c1.74,0,2.63,1.01,2.63,2.29s-.89,2.29-2.63,2.29h-1.38v2.89h-.92v-7.48ZM51.71,12.98c0-.9-.62-1.45-1.77-1.45h-1.3v2.9h1.3c1.15,0,1.77-.55,1.77-1.45Z"/>
    <path class="cls-1" d="M53.97,10.68h.92v7.48h-.92v-7.48Z"/>
    <path class="cls-1" d="M56.57,10.68h.91l4.25,5.92v-5.92h.92v7.48h-.91l-4.25-5.92v5.92h-.92v-7.48Z"/>
    <path class="cls-1" d="M63.93,14.42c0-2.29,1.43-3.86,3.51-3.86,1.65,0,2.95,1.01,3.24,2.53h-.95c-.28-.98-1.19-1.63-2.29-1.63-1.52,0-2.56,1.2-2.56,2.96s1.09,2.97,2.69,2.97c1.37,0,2.32-.87,2.32-2.15v-.06h-2.07v-.84h2.99v3.82h-.71l-.09-1.16c-.47.76-1.46,1.28-2.44,1.28-2.16,0-3.63-1.58-3.63-3.87Z"/>
  </g>
  <polygon class="cls-1" points="25.57 27.09 25.99 25.43 26.23 24.46 26.24 24.46 26.48 25.43 26.89 27.09 27.48 27.09 28.27 23.88 27.76 23.88 27.42 25.43 27.19 26.49 27.18 26.49 26.93 25.43 26.55 23.88 25.97 23.88 25.59 25.43 25.33 26.5 25.31 26.5 25.09 25.43 24.76 23.88 24.23 23.88 24.99 27.09 25.58 27.09 25.57 27.09"/>
  <path class="cls-1" d="M29.07,23.67c-.21,0-.3.11-.3.26v.08c0,.15.09.26.3.26s.3-.11.3-.26v-.08c0-.15-.09-.26-.3-.26"/>
  <rect class="cls-1" x="28.81" y="24.7" width=".5" height="2.39"/>
  <path class="cls-1" d="M31.14,27.09v-.41s-.46,0-.46,0v-1.57h.5s0-.41,0-.41h-.5v-.65s-.45,0-.45,0v.42c0,.17-.06.23-.22.23h-.2s0,.41,0,.41h.37v1.46c0,.33.18.52.53.52h.44,0Z"/>
  <path class="cls-1" d="M31.7,23.68v3.41s0,0,0,0h.5s0-1.61,0-1.61c0-.28.26-.41.52-.41.31,0,.45.19.45.56v1.46s.5,0,.5,0v-1.52c0-.59-.29-.93-.78-.93-.37,0-.57.19-.67.45h-.02v-1.41"/>
  <path class="cls-1" d="M5.83.83h6.64c4.77,0,6.93,3.31,6.93,6.17s-2.16,6.17-6.93,6.17h-2.08s0,4.98,0,4.98h-4.56s0-17.32,0-17.32h0Z"/>
  <path class="cls-2" d="M15.47,5.03c-.05-.09-.12-.15-.21-.21l-2.78-1.61c-.09-.05-.18-.07-.28-.07s-.19.02-.28.07l-2.78,1.61c-.09.05-.16.12-.21.21-.05.09-.07.18-.07.28v3.16c0,.1.02.19.07.28.05.09.12.15.21.21l2.78,1.61c.09.05.18.07.28.07s.19-.02.28-.07l2.78-1.61c.09-.05.16-.12.21-.21.05-.09.07-.18.07-.28v-3.16c0-.1-.02-.19-.07-.28ZM12.2,3.7l2.47,1.43-.75.44s-.02-.02-.03-.03l-2.49-1.38.81-.47ZM11.92,9.91l-2.51-1.45v-2.87l2.51,1.45v2.87ZM12.2,6.57l-2.48-1.44,1.01-.59,2.53,1.4-1.07.62ZM14.98,8.47l-2.51,1.45v-2.87l.93-.54v.95c0,.18.15.33.33.33s.33-.15.33-.33v-1.33l.93-.54v2.88Z"/>
  <g>
    <g>
      <path class="cls-1" d="M39.89,25.93c-.05-.04-.12-.04-.18-.04h-.14v.35h.14c.06,0,.13,0,.18-.03.05-.03.07-.09.07-.14,0-.06-.02-.11-.07-.14Z"/>
      <path class="cls-1" d="M39.87,25.66s.06-.07.06-.12c0-.05-.02-.1-.07-.13-.05-.03-.1-.02-.16-.02h-.13v.3h.13c.06,0,.12,0,.17-.03Z"/>
    </g>
    <rect class="cls-1" x="71.11" y="26.6" width=".45" height=".5"/>
    <path class="cls-1" d="M48.25,25.12h0l.32.87h-.65l.33-.87ZM47.93,26.75h-.28l.15-.38h.9l.15.38h-.28v.36h1.08v-.41h-.27l-.89-2.14h-.85v.41h.28l-.74,1.74h-.27v.41h1.04v-.36Z"/>
    <polygon class="cls-1" points="50.79 26.7 50.51 26.7 50.51 24.97 50.79 24.97 50.79 24.56 49.75 24.56 49.75 24.97 50.03 24.97 50.03 26.7 49.75 26.7 49.75 27.11 50.79 27.11 50.79 26.7"/>
    <polygon class="cls-1" points="52.76 26.34 52.27 26.34 52.27 26.67 51.66 26.67 51.66 24.97 51.93 24.97 51.93 24.56 50.89 24.56 50.89 24.97 51.17 24.97 51.17 26.7 50.89 26.7 50.89 27.11 52.76 27.11 52.76 26.34"/>
    <polygon class="cls-1" points="62.32 26.34 61.83 26.34 61.83 26.68 61.19 26.68 61.19 26.01 61.94 26.01 61.94 25.63 61.19 25.63 61.19 24.99 61.83 24.99 61.83 25.33 62.32 25.33 62.32 24.56 60.43 24.56 60.43 24.97 60.71 24.97 60.71 26.7 60.43 26.7 60.43 27.11 62.32 27.11 62.32 26.34"/>
    <polygon class="cls-1" points="64.64 24.97 64.92 24.97 64.92 26.7 64.64 26.7 64.64 27.11 66.53 27.11 66.53 26.34 66.04 26.34 66.04 26.68 65.4 26.68 65.4 26.01 66.15 26.01 66.15 25.63 65.4 25.63 65.4 24.99 66.04 24.99 66.04 25.33 66.53 25.33 66.53 24.56 64.64 24.56 64.64 24.97"/>
    <polygon class="cls-1" points="67.07 24.99 67.45 24.99 67.45 26.7 67.17 26.7 67.17 27.11 68.22 27.11 68.22 26.7 67.94 26.7 67.94 24.99 68.31 24.99 68.31 25.36 68.7 25.36 68.7 24.56 66.69 24.56 66.69 25.36 67.07 25.36 67.07 24.99"/>
    <polygon class="cls-1" points="46.8 24.97 46.8 24.56 45.84 24.56 45.14 26.36 44.45 24.56 43.49 24.56 43.49 24.97 43.77 24.97 43.77 26.7 43.49 26.7 43.49 27.11 44.55 27.11 44.55 26.7 44.26 26.7 44.26 25.22 44.98 27.11 45.33 27.11 46.03 25.22 46.03 26.7 45.76 26.7 45.76 27.11 46.8 27.11 46.8 26.7 46.52 26.7 46.52 24.97 46.8 24.97"/>
    <path class="cls-1" d="M69.98,24.97c.28,0,.56.15.7.39h.47v-.82h-.4v.26c-.21-.21-.49-.31-.79-.31-.73,0-1.31.61-1.31,1.32,0,.36.14.7.39.95.24.24.59.39.94.39.55,0,1.07-.37,1.24-.89h-.53c-.16.25-.43.39-.72.39-.46,0-.83-.38-.83-.84s.35-.84.84-.84Z"/>
    <path class="cls-1" d="M63.23,26.74c-.24,0-.38-.18-.38-.39h-.44v.76h.39v-.17c.12.15.29.22.49.22.46,0,.81-.34.81-.8,0-.21-.09-.4-.25-.54-.16-.12-.35-.18-.55-.23-.2-.06-.42-.11-.42-.36,0-.2.16-.32.35-.32s.33.14.33.33h.44v-.69h-.37v.14c-.11-.14-.28-.2-.45-.2-.41,0-.77.31-.77.74,0,.23.1.42.28.56.16.12.32.16.5.22.2.06.44.12.44.38,0,.22-.16.35-.38.35Z"/>
    <g>
      <polygon class="cls-1" points="60.09 26.7 59.38 25.82 60.07 24.97 60.33 24.97 60.33 24.56 59.27 24.56 59.27 24.93 59.51 24.93 59.1 25.48 58.69 24.93 58.92 24.93 58.92 24.56 57.87 24.56 57.87 24.97 58.13 24.97 58.8 25.82 58.09 26.7 57.84 26.7 57.84 27.11 58.89 27.11 58.89 26.73 58.64 26.73 59.1 26.15 59.56 26.73 59.31 26.73 59.31 27.11 60.35 27.11 60.35 26.7 60.09 26.7"/>
      <path class="cls-1" d="M54.97,25.74c.22-.1.33-.31.33-.54,0-.2-.07-.38-.24-.51-.15-.11-.34-.13-.53-.13h-1.13v.41h.28v1.74h-.28v.41h1.19c.22,0,.41-.02.59-.17.15-.13.24-.34.24-.54,0-.3-.16-.54-.44-.66ZM54.17,24.97h.25c.1,0,.22,0,.31.05.09.06.13.15.13.25,0,.1-.04.19-.11.24-.1.07-.21.06-.33.06h-.25v-.61ZM54.78,26.62c-.1.07-.24.06-.35.06h-.27v-.71h.27c.13,0,.25,0,.35.07.1.07.14.18.14.29,0,.11-.05.22-.14.28Z"/>
      <path class="cls-1" d="M56.74,24.49c-.74,0-1.35.59-1.35,1.34s.6,1.33,1.34,1.33,1.34-.6,1.34-1.35-.6-1.32-1.33-1.32ZM57.51,26.6h-1.53v-1.53h1.53v1.53Z"/>
    </g>
    <path class="cls-1" d="M36.25,22.74v6.05h6.18v-6.05h-6.18ZM41.85,25.31l-.53.02v-.05h.53s0,.03,0,.03ZM38.28,23.48l2.27.08.1.06-2.73.06c.1-.07.26-.15.36-.2ZM37.48,24.04l3.79.1.07.07-4.07.08c.05-.08.15-.18.21-.25ZM37.04,24.66l4.63.09.03.06-4.76.09c.03-.08.07-.16.11-.24ZM40.65,25.4v.32h.38v.19h-.38v.34h.33v-.17h.25v.38h-.96v-.2h.14v-.87h-.14v-.2h.96v.38h-.25v-.17h-.33ZM39.19,25.38v-.2h.58c.1,0,.19,0,.27.07.08.06.12.15.12.25,0,.12-.06.22-.17.27.14.06.23.18.23.33,0,.1-.04.2-.12.27-.09.07-.19.08-.3.08h-.6v-.2h.14v-.87h-.14ZM39.13,26.25v.2h-.53v-.2h.14v-.74l-.36.94h-.17l-.37-.94v.74h.15v.2h-.54v-.2h.14v-.87h-.14v-.2h.49l.35.9.35-.9h.49v.2h-.14v.87h.14ZM36.86,25.17h.48v.22h-.53c.01-.07.03-.16.05-.22ZM36.79,25.77s0-.07,0-.09h.55v.23h-.56c0-.05,0-.08,0-.14ZM40.55,27.96l-2.27.08c-.1-.05-.27-.14-.37-.21l2.78.05-.14.08ZM41.26,27.4l-3.77.09c-.06-.07-.14-.15-.2-.23l4.02.07-.06.07ZM41.63,26.87l-4.54.09c-.04-.08-.08-.16-.11-.24l4.68.09-.03.06ZM41.82,26.33h-.51s0-.04,0-.04h.51s0,.04,0,.04ZM41.89,25.83h-.58s0-.04,0-.04h.58v.04Z"/>
    <path class="cls-1" d="M37.34,26.2h-.52c.01.06.03.14.06.23h.45v-.23Z"/>
    <path class="cls-1" d="M43.49,28.02v.77l2.58-.1,2.58-.1.64-.03.64-.03.81-.04.81-.04.79-.04.79-.04,2.07-.06,2.07-.06.46-.02.46-.02.52-.02.54-.02.69-.03h.71s.53-.03.53-.03h.6s.74-.02.74-.02c0,0,1.78-.02,2.03-.03.26-.01,2.41,0,2.41,0h1.02s1.35.05,1.35.05l1.25.03.64.03h.13s.1.01.1.01h.1s.08,0,.08,0h.08s.04,0,.04,0h.04s.03,0,.03,0h.03s.06-.02.06-.02h.03s.01-.03.01-.03v-.02s.02-.03.02-.03v-.05s-.03-.05-.05-.05c-.02,0-.06-.02-.11-.03-.03,0-.13-.01-.13-.01h-.16s-.19-.03-.19-.03h-.17s-.2-.02-.2-.02l-.49-.02h-.29s-.76-.04-.76-.04c0,0-.31-.01-.64-.02-.32-.01-.37-.01-.7-.02-.4-.01-.32,0-.78-.03-.36-.01-.77-.02-.77-.02l-.66-.03h-.94s-1.88-.05-1.88-.05h-1.93s-3.43.02-3.43.02l-3.45.03-2.58.03-2.58.03-1.77.06-1.77.06-1.03.05-1.03.05Z"/>
  </g>
</svg>